# Blender v2.93.0 OBJ File: ''
# www.blender.org
mtllib lowpolydonut.mtl
o Torus
v 1.250000 0.000000 0.000000
v 1.125000 0.216506 0.000000
v 0.875000 0.216506 0.000000
v 0.750000 0.000000 0.000000
v 0.875000 -0.216506 0.000000
v 1.125000 -0.216506 0.000000
v 1.011271 0.000000 -0.734732
v 0.910144 0.216506 -0.661258
v 0.707890 0.216506 -0.514312
v 0.606763 0.000000 -0.440839
v 0.707890 -0.216506 -0.514312
v 0.910144 -0.216506 -0.661258
v 0.386271 0.000000 -1.188821
v 0.347644 0.216506 -1.069939
v 0.270390 0.216506 -0.832174
v 0.231763 0.000000 -0.713292
v 0.270390 -0.216506 -0.832174
v 0.347644 -0.216506 -1.069939
v -0.386271 0.000000 -1.188821
v -0.347644 0.216506 -1.069939
v -0.270390 0.216506 -0.832174
v -0.231763 0.000000 -0.713292
v -0.270390 -0.216506 -0.832174
v -0.347644 -0.216506 -1.069939
v -1.011271 0.000000 -0.734731
v -0.910144 0.216506 -0.661258
v -0.707890 0.216506 -0.514312
v -0.606763 0.000000 -0.440839
v -0.707890 -0.216506 -0.514312
v -0.910144 -0.216506 -0.661258
v -1.250000 0.000000 -0.000000
v -1.125000 0.216506 -0.000000
v -0.875000 0.216506 -0.000000
v -0.750000 0.000000 -0.000000
v -0.875000 -0.216506 -0.000000
v -1.125000 -0.216506 -0.000000
v -1.011271 0.000000 0.734731
v -0.910144 0.216506 0.661258
v -0.707890 0.216506 0.514312
v -0.606763 0.000000 0.440839
v -0.707890 -0.216506 0.514312
v -0.910144 -0.216506 0.661258
v -0.386271 0.000000 1.188821
v -0.347644 0.216506 1.069939
v -0.270390 0.216506 0.832174
v -0.231763 0.000000 0.713292
v -0.270390 -0.216506 0.832174
v -0.347644 -0.216506 1.069939
v 0.386271 0.000000 1.188821
v 0.347644 0.216506 1.069939
v 0.270390 0.216506 0.832174
v 0.231763 0.000000 0.713292
v 0.270390 -0.216506 0.832174
v 0.347644 -0.216506 1.069939
v 1.011271 0.000000 0.734732
v 0.910144 0.216506 0.661259
v 0.707890 0.216506 0.514312
v 0.606763 0.000000 0.440839
v 0.707890 -0.216506 0.514312
v 0.910144 -0.216506 0.661259
vt 0.700000 0.500000
vt 0.600000 0.666667
vt 0.600000 0.500000
vt 0.700000 0.666667
vt 0.600000 0.833333
vt 0.700000 0.833333
vt 0.600000 1.000000
vt 0.700000 -0.000000
vt 0.600000 0.166667
vt 0.600000 -0.000000
vt 0.700000 0.333333
vt 0.600000 0.333333
vt 0.800000 0.500000
vt 0.800000 0.666667
vt 0.800000 0.833333
vt 0.700000 1.000000
vt 0.800000 -0.000000
vt 0.700000 0.166667
vt 0.800000 0.166667
vt 0.800000 0.333333
vt 0.900000 0.500000
vt 0.900000 0.666667
vt 0.900000 0.833333
vt 0.800000 1.000000
vt 0.900000 -0.000000
vt 0.900000 0.333333
vt 1.000000 0.666667
vt 1.000000 0.833333
vt 0.900000 1.000000
vt 1.000000 -0.000000
vt 0.900000 0.166667
vt 1.000000 0.166667
vt 1.000000 0.333333
vt 0.100000 0.500000
vt -0.000000 0.666667
vt -0.000000 0.500000
vt 0.100000 0.833333
vt -0.000000 0.833333
vt -0.000000 1.000000
vt 0.100000 -0.000000
vt -0.000000 0.166667
vt -0.000000 -0.000000
vt 0.100000 0.333333
vt -0.000000 0.333333
vt 0.200000 0.500000
vt 0.100000 0.666667
vt 0.200000 0.833333
vt 0.100000 1.000000
vt 0.200000 -0.000000
vt 0.100000 0.166667
vt 0.200000 0.166667
vt 0.200000 0.333333
vt 0.300000 0.500000
vt 0.200000 0.666667
vt 0.300000 0.833333
vt 0.200000 1.000000
vt 0.300000 -0.000000
vt 0.300000 0.333333
vt 0.400000 0.500000
vt 0.300000 0.666667
vt 0.400000 0.833333
vt 0.300000 1.000000
vt 0.400000 -0.000000
vt 0.300000 0.166667
vt 0.400000 0.166667
vt 0.400000 0.333333
vt 0.500000 0.666667
vt 0.400000 0.666667
vt 0.500000 0.833333
vt 0.400000 1.000000
vt 0.500000 -0.000000
vt 0.500000 0.166667
vt 0.500000 0.333333
vt 0.500000 0.500000
vt 0.500000 1.000000
vt 1.000000 0.500000
vt 1.000000 1.000000
vn 0.8336 0.4813 -0.2709
vn 0.0000 1.0000 0.0000
vn -0.8336 0.4813 0.2709
vn -0.8336 -0.4813 0.2709
vn 0.0000 -1.0000 0.0000
vn 0.8337 -0.4813 -0.2709
vn 0.5152 0.4813 -0.7091
vn -0.5152 0.4813 0.7091
vn -0.5152 -0.4813 0.7091
vn 0.5152 -0.4813 -0.7091
vn 0.0000 0.4813 -0.8766
vn 0.0000 0.4813 0.8766
vn 0.0000 -0.4813 0.8766
vn 0.0000 -0.4813 -0.8766
vn -0.5152 0.4813 -0.7091
vn 0.5152 0.4813 0.7091
vn 0.5152 -0.4813 0.7091
vn -0.5152 -0.4813 -0.7091
vn -0.8337 0.4813 -0.2709
vn 0.8336 0.4813 0.2709
vn 0.8337 -0.4813 0.2709
vn -0.8337 -0.4813 -0.2709
vn 0.8336 -0.4813 -0.2709
vn -0.8337 -0.4813 0.2709
vn 0.8337 0.4813 0.2709
vn 0.8336 -0.4813 0.2709
vn -0.8337 0.4813 0.2709
vn 0.8337 0.4813 -0.2709
vn -0.8336 0.4813 -0.2709
usemtl None
s off
f 7/1/1 2/2/1 1/3/1
f 8/4/2 3/5/2 2/2/2
f 9/6/3 4/7/3 3/5/3
f 10/8/4 5/9/4 4/10/4
f 5/9/5 12/11/5 6/12/5
f 12/11/6 1/3/6 6/12/6
f 13/13/7 8/4/7 7/1/7
f 14/14/2 9/6/2 8/4/2
f 15/15/8 10/16/8 9/6/8
f 16/17/9 11/18/9 10/8/9
f 17/19/5 12/11/5 11/18/5
f 18/20/10 7/1/10 12/11/10
f 19/21/11 14/14/11 13/13/11
f 20/22/2 15/15/2 14/14/2
f 21/23/12 16/24/12 15/15/12
f 22/25/13 17/19/13 16/17/13
f 17/19/5 24/26/5 18/20/5
f 24/26/14 13/13/14 18/20/14
f 19/21/15 26/27/15 20/22/15
f 20/22/2 27/28/2 21/23/2
f 27/28/16 22/29/16 21/23/16
f 28/30/17 23/31/17 22/25/17
f 29/32/5 24/26/5 23/31/5
f 30/33/18 19/21/18 24/26/18
f 31/34/19 26/35/19 25/36/19
f 26/35/2 33/37/2 27/38/2
f 33/37/20 28/39/20 27/38/20
f 34/40/21 29/41/21 28/42/21
f 29/41/5 36/43/5 30/44/5
f 30/44/22 31/34/22 25/36/22
f 37/45/3 32/46/3 31/34/3
f 32/46/2 39/47/2 33/37/2
f 39/47/1 34/48/1 33/37/1
f 40/49/23 35/50/23 34/40/23
f 41/51/5 36/43/5 35/50/5
f 42/52/24 31/34/24 36/43/24
f 43/53/8 38/54/8 37/45/8
f 38/54/2 45/55/2 39/47/2
f 45/55/7 40/56/7 39/47/7
f 46/57/10 41/51/10 40/49/10
f 41/51/5 48/58/5 42/52/5
f 48/58/9 37/45/9 42/52/9
f 49/59/12 44/60/12 43/53/12
f 44/60/2 51/61/2 45/55/2
f 51/61/11 46/62/11 45/55/11
f 52/63/14 47/64/14 46/57/14
f 53/65/5 48/58/5 47/64/5
f 54/66/13 43/53/13 48/58/13
f 49/59/16 56/67/16 50/68/16
f 56/67/2 51/61/2 50/68/2
f 57/69/15 52/70/15 51/61/15
f 58/71/18 53/65/18 52/63/18
f 59/72/5 54/66/5 53/65/5
f 60/73/17 49/59/17 54/66/17
f 1/3/25 56/67/25 55/74/25
f 2/2/2 57/69/2 56/67/2
f 3/5/19 58/75/19 57/69/19
f 4/10/22 59/72/22 58/71/22
f 5/9/5 60/73/5 59/72/5
f 6/12/26 55/74/26 60/73/26
f 7/1/1 8/4/1 2/2/1
f 8/4/2 9/6/2 3/5/2
f 9/6/27 10/16/27 4/7/27
f 10/8/24 11/18/24 5/9/24
f 5/9/5 11/18/5 12/11/5
f 12/11/23 7/1/23 1/3/23
f 13/13/7 14/14/7 8/4/7
f 14/14/2 15/15/2 9/6/2
f 15/15/8 16/24/8 10/16/8
f 16/17/9 17/19/9 11/18/9
f 17/19/5 18/20/5 12/11/5
f 18/20/10 13/13/10 7/1/10
f 19/21/11 20/22/11 14/14/11
f 20/22/2 21/23/2 15/15/2
f 21/23/12 22/29/12 16/24/12
f 22/25/13 23/31/13 17/19/13
f 17/19/5 23/31/5 24/26/5
f 24/26/14 19/21/14 13/13/14
f 19/21/15 25/76/15 26/27/15
f 20/22/2 26/27/2 27/28/2
f 27/28/16 28/77/16 22/29/16
f 28/30/17 29/32/17 23/31/17
f 29/32/5 30/33/5 24/26/5
f 30/33/18 25/76/18 19/21/18
f 31/34/19 32/46/19 26/35/19
f 26/35/2 32/46/2 33/37/2
f 33/37/25 34/48/25 28/39/25
f 34/40/21 35/50/21 29/41/21
f 29/41/5 35/50/5 36/43/5
f 30/44/22 36/43/22 31/34/22
f 37/45/27 38/54/27 32/46/27
f 32/46/2 38/54/2 39/47/2
f 39/47/28 40/56/28 34/48/28
f 40/49/6 41/51/6 35/50/6
f 41/51/5 42/52/5 36/43/5
f 42/52/4 37/45/4 31/34/4
f 43/53/8 44/60/8 38/54/8
f 38/54/2 44/60/2 45/55/2
f 45/55/7 46/62/7 40/56/7
f 46/57/10 47/64/10 41/51/10
f 41/51/5 47/64/5 48/58/5
f 48/58/9 43/53/9 37/45/9
f 49/59/12 50/68/12 44/60/12
f 44/60/2 50/68/2 51/61/2
f 51/61/11 52/70/11 46/62/11
f 52/63/14 53/65/14 47/64/14
f 53/65/5 54/66/5 48/58/5
f 54/66/13 49/59/13 43/53/13
f 49/59/16 55/74/16 56/67/16
f 56/67/2 57/69/2 51/61/2
f 57/69/15 58/75/15 52/70/15
f 58/71/18 59/72/18 53/65/18
f 59/72/5 60/73/5 54/66/5
f 60/73/17 55/74/17 49/59/17
f 1/3/20 2/2/20 56/67/20
f 2/2/2 3/5/2 57/69/2
f 3/5/29 4/7/29 58/75/29
f 4/10/22 5/9/22 59/72/22
f 5/9/5 6/12/5 60/73/5
f 6/12/21 1/3/21 55/74/21
