# Blender v2.93.0 OBJ File: ''
# www.blender.org
mtllib more_complex_cube.mtl
o Cube_Cube.001
v -1.000000 -1.000000 1.000000
v -1.000000 1.000000 1.000000
v -1.000000 -1.000000 -1.000000
v -1.000000 1.000000 -1.000000
v 1.000000 -1.000000 1.000000
v 1.000000 1.000000 1.000000
v 1.000000 -1.000000 -1.000000
v 1.000000 1.000000 -1.000000
v -0.385529 2.030975 0.385529
v -0.385529 2.030975 -0.385529
v 0.385529 2.030975 0.385529
v 0.385529 2.030975 -0.385529
vt 0.625000 0.000000
vt 0.375000 0.250000
vt 0.375000 0.000000
vt 0.625000 0.250000
vt 0.375000 0.500000
vt 0.625000 0.500000
vt 0.375000 0.750000
vt 0.625000 0.750000
vt 0.375000 1.000000
vt 0.125000 0.750000
vt 0.125000 0.500000
vt 0.625000 0.750000
vt 0.875000 0.500000
vt 0.625000 0.500000
vt 0.625000 0.250000
vt 0.625000 1.000000
vt 0.625000 1.000000
vt 0.875000 0.750000
vt 0.625000 0.000000
vn -1.0000 0.0000 0.0000
vn 0.0000 0.0000 -1.0000
vn 1.0000 0.0000 0.0000
vn 0.0000 0.0000 1.0000
vn 0.0000 -1.0000 0.0000
vn 0.8590 0.5120 0.0000
vn 0.0000 1.0000 0.0000
vn -0.8590 0.5120 0.0000
vn 0.0000 0.5120 0.8590
vn 0.0000 0.5120 -0.8590
usemtl None
s off
f 2/1/1 3/2/1 1/3/1
f 4/4/2 7/5/2 3/2/2
f 8/6/3 5/7/3 7/5/3
f 6/8/4 1/9/4 5/7/4
f 7/5/5 1/10/5 3/11/5
f 8/6/6 11/12/6 6/8/6
f 10/13/7 11/12/7 12/14/7
f 2/1/8 10/15/8 4/4/8
f 6/8/9 9/16/9 2/17/9
f 4/4/10 12/14/10 8/6/10
f 2/1/1 4/4/1 3/2/1
f 4/4/2 8/6/2 7/5/2
f 8/6/3 6/8/3 5/7/3
f 6/8/4 2/17/4 1/9/4
f 7/5/5 5/7/5 1/10/5
f 8/6/6 12/14/6 11/12/6
f 10/13/7 9/18/7 11/12/7
f 2/1/8 9/19/8 10/15/8
f 6/8/9 11/12/9 9/16/9
f 4/4/10 10/15/10 12/14/10
